<?xml version="1.0" encoding="UTF-8"?>
<svg id="Calque_1" xmlns="http://www.w3.org/2000/svg" version="1.1" viewBox="0 0 309.9 250.1">
  <!-- Generator: Adobe Illustrator 29.0.0, SVG Export Plug-In . SVG Version: 2.1.0 Build 186)  -->
  <defs>
    <style>
      .st0 {
        fill: #fff;
      }

      .st1 {
        fill: none;
      }
    </style>
  </defs>
  <g id="LOGO">
    <g>
      <g>
        <path class="st1" d="M154.5,178.6c-29.6,0-53.5-24-53.5-53.5s24-53.5,53.5-53.5,53.5,24,53.5,53.5-24,53.5-53.5,53.5Z"/>
        <path class="st0" d="M120.3,86.5l-.4.4-2.5-2.8.4-.4,2.5,2.8Z"/>
        <path class="st0" d="M121.9,80.3l2.3,3-.2.2h-.2l-3.3-.9h0c0,.2,0,0,0,0l1.6,2-.4.3-2.3-3,.2-.2h0l3.4.9h0v-.2l-1.6-2,.4-.3h0Z"/>
        <path class="st0" d="M126.1,78.1l-1,.6,1.8,2.8-.5.3-1.8-2.8-1,.6-.3-.4,2.5-1.6.3.4h0Z"/>
        <path class="st0" d="M131.1,78.6l.2.4-2,1.1-1.8-3.3,2-1.1.2.4-1.6.8.6,1,1.2-.7.2.4-1.2.7.6,1.1,1.6-.8Z"/>
        <path class="st0" d="M135.3,77.1l-.5.2h-.2l-1.4-.8h-.6c0,0,.6,1.6.6,1.6l-.5.2-1.5-3.4,1-.4c.2,0,.4-.2.6-.2h.5c.1,0,.3,0,.4.2.1,0,.2.2.2.4v.8c0,0,0,.2-.2.3,0,0-.2.2-.3.3h.2l1.5.9h.2ZM133,76c.1,0,.2,0,.3-.2,0,0,.1-.2.2-.2v-.6c0-.2-.2-.3-.4-.4-.2,0-.4,0-.6,0l-.5.2.5,1.3.5-.2Z"/>
        <path class="st0" d="M138.4,72.1l1.2,3.5h-.3q0,0-.1,0h-.1l-2.9-1.9h0v.2l.8,2.4-.5.2-1.2-3.5h.3q0,0,.1,0h.1l2.9,1.9h0v-.2l-.8-2.4.5-.2Z"/>
        <path class="st0" d="M144.5,74.4h-.4q0,0-.1,0h0l-.5-.8-1.6.4v.9q-.1,0-.2,0h-.5l.6-3.9h.5c0,0,2.3,3.2,2.3,3.2h-.1ZM143.1,73.3l-.9-1.3s-.1-.2-.2-.3v.4l-.2,1.5,1.3-.3h0Z"/>
        <path class="st0" d="M147.6,70.6l-1.2.2.5,3.2h-.5l-.5-3.2-1.2.2v-.5l2.8-.4v.5h0Z"/>
        <path class="st0" d="M150.2,73.6h-.6l-.3-3.7h.6l.3,3.7Z"/>
        <path class="st0" d="M155.7,71.6c0,.3,0,.5-.1.8,0,.2-.2.4-.4.6s-.4.3-.6.4c-.2,0-.5,0-.8.2-.3,0-.5,0-.8,0-.2,0-.4-.2-.6-.4-.2-.2-.3-.4-.4-.6,0-.2-.1-.5-.1-.8s0-.5.1-.8c0-.2.2-.4.4-.6s.4-.3.6-.4c.2,0,.5,0,.8-.2.3,0,.5,0,.8,0,.2,0,.4.2.6.4.2.2.3.4.4.6,0,.2.1.5.1.8ZM155.1,71.6c0-.2,0-.4-.1-.6,0-.2-.2-.3-.3-.4s-.3-.2-.4-.3h-.5c-.2,0-.4,0-.5,0s-.3.2-.4.3c-.1,0-.2.3-.3.5v.6c0,.2,0,.4.1.6,0,.2.2.3.3.4s.3.2.4.3.3,0,.5,0,.4,0,.5,0c.2,0,.3-.2.4-.3.1,0,.2-.3.3-.5v-.6Z"/>
        <path class="st0" d="M160.8,70l-.3,3.7h-.4l-1.9-2.9h0v.2l-.2,2.6h-.5l.3-3.8h.4l1.9,2.9h0v-.2l.2-2.5s.5,0,.5,0Z"/>
        <path class="st0" d="M165.4,74.6h-.4s0,0-.1,0h0c0,0-.2-1-.2-1l-1.6-.3-.5.8h-.5l2.1-3.5h.6l.8,4h-.2ZM164.6,73l-.3-1.5v-.4.4l-.8,1.3,1.3.2h-.2Z"/>
        <path class="st0" d="M169,75v.5c-.1,0-2.2-.5-2.2-.5l1-3.6h.5c0,0-.8,3.3-.8,3.3l1.5.4h0Z"/>
        <path class="st0" d="M174.8,77.1l-.2.4-2.2-.8,1.4-3.5,2.2.8-.2.4-1.6-.6-.4,1.1,1.3.5-.2.4-1.3-.5-.4,1.1,1.6.6h0Z"/>
        <path class="st0" d="M180.7,76.3l-3,2.7-.4-.2.3-4,.4.2h0c0,0-.2,2.8-.2,2.8v.4s.1,0,.2-.2.1,0,.2-.2l2-1.8h.1l.4.2h0Z"/>
        <path class="st0" d="M182.6,81.2l-.2.4-2-1.2,1.9-3.2,2,1.2-.2.4-1.5-.9-.6,1,1.2.7-.2.4-1.2-.7-.6,1,1.5.9h0Z"/>
        <path class="st0" d="M188.4,81.2l-2.2,3-.2-.2h0v-3.6q-.1,0-.2,0c0,0,0,0,0,0l-1.5,2.1-.4-.3,2.2-3,.2.2h0v3.6c.1,0,.2,0,.2,0h0c0,0,1.5-2.2,1.5-2.2l.4.3Z"/>
        <path class="st0" d="M191.7,84.7l-.9-.8-2.2,2.5-.4-.4,2.2-2.5-.9-.8.3-.3,2.2,1.9-.3.3h0Z"/>
      </g>
      <g>
        <path class="st0" d="M117.1,160.6c.2.2.3.3.4.5,0,.2,0,.3,0,.4v.4c0,.1,0,.2-.2.3,0,0,0,.1-.2.1h-.6c0,0-.2,0-.3-.1.3.5.3.9,0,1.2,0,.1-.2.2-.4.2h-.4c0,0-.3,0-.4-.1s-.3-.2-.4-.4l-.9-1,2.7-2.6.8.9-.2.2ZM114.8,163c0,.1.2.2.3.2h.5s.2,0,.2-.1c0-.1.2-.3.2-.4,0-.2,0-.3-.3-.5l-.5-.6-.9.9.5.6h0ZM116.3,160.4l-.9.8.4.5c.2.2.4.3.5.3.2,0,.3,0,.5-.2.2-.1.2-.3.2-.5s0-.3-.3-.5l-.5-.5h.1Z"/>
        <path class="st0" d="M119.2,167.7l-.3-.3h0v-.2l.3-.9-1.2-1.1-.8.4h-.2l-.3-.3,3.6-1.8.4.4-1.4,3.8h0ZM119.3,165.9l.5-1.5c0-.1,0-.2.2-.4,0,0,0,0-.2.1h-.2l-1.4.7,1,.9v.2Z"/>
        <path class="st0" d="M124.3,167.5l-.9-.7-2,2.6-.4-.3,2-2.6-1-.7.3-.4,2.3,1.8-.3.4h0Z"/>
        <path class="st0" d="M127.9,169.8l-1-.6-1.8,2.8-.5-.3,1.8-2.8-1-.6.2-.4,2.5,1.6-.2.4h0Z"/>
        <path class="st0" d="M129.9,174.1l-.2.4-1.9-1,1.8-3.3.5.3-1.5,2.9,1.4.7h0Z"/>
        <path class="st0" d="M133.6,175.8l-.2.4-2.1-.9,1.5-3.4,2.1.9-.2.4-1.6-.7-.5,1.1,1.3.6-.2.4-1.3-.6-.5,1.1,1.6.7h0Z"/>
        <path class="st0" d="M141.1,176.9c0,.3-.2.5-.3.7l-.5.5c-.2.1-.4.2-.7.2h-.8l-1.4-.4,1.1-3.6,1.4.4c.3,0,.5.2.7.3l.5.5c.1.2.2.4.2.7v.8h-.2ZM140.6,176.7v-.6c0-.2,0-.4-.1-.5,0-.1-.2-.3-.3-.4-.1-.1-.3-.2-.5-.2l-.8-.2-.8,2.7.8.2h.5c.2,0,.3,0,.5-.2.1,0,.3-.2.4-.4.1-.2.2-.3.3-.5h0Z"/>
        <path class="st0" d="M145.5,179.7h-.4s0-.1-.1-.1h0c0-.1-.2-1-.2-1l-1.6-.3-.5.8h-.5l2.2-3.5h.5c0,.1.7,4.1.7,4.1h0ZM144.7,178.1l-.3-1.5v-.4.4l-.8,1.3,1.3.3h-.2Z"/>
        <path class="st0" d="M150.8,176.5l-.4,3.7h-.4c-.1,0,0,0,0,0l-1.8-2.9h0v.2l-.3,2.6h-.5l.4-3.8h.4l1.8,2.9h0v-.2l.3-2.5h.5Z"/>
        <path class="st0" d="M155.3,179.6h0l.2.2c-.2.2-.3.3-.6.4-.2,0-.5.1-.8.1s-.5,0-.7-.2c-.2,0-.4-.2-.6-.4-.2-.2-.3-.4-.4-.6,0-.2-.1-.5-.1-.8s0-.5.1-.8c0-.2.2-.4.4-.6s.4-.3.6-.4c.2,0,.5-.1.7-.1.3,0,.5,0,.7.1.2,0,.4.2.5.4l-.2.3h-.1s-.1,0-.2-.1-.2,0-.3-.1h-.9c-.2,0-.3.2-.4.3-.1.1-.2.3-.3.4,0,.2,0,.4-.1.6v.6c0,.2.1.3.3.5s.2.2.4.3c.2,0,.3.1.5.1h.7s.1,0,.2-.1h.4Z"/>
        <path class="st0" d="M159.7,179.7v.5l-2.3.2-.3-3.7,2.3-.2v.5h-1.7v1.3h1.5v.4h-1.4v1.2h1.8c0-.1,0-.2,0-.2Z"/>
        <path class="st0" d="M166.4,178.3h0l.3.2c-.1.2-.3.4-.5.5s-.4.2-.8.3h-.7c-.2,0-.4-.1-.6-.3-.2-.1-.3-.3-.5-.5-.1-.2-.2-.5-.3-.7v-.8c0-.2.1-.5.3-.7.1-.2.3-.4.5-.5s.4-.2.7-.3h.7c.2,0,.4.1.6.2v.3h-.2c0,0,0,0,0,0h-1c-.2,0-.3.1-.5.2-.1,0-.3.2-.3.4s-.1.3-.2.5v.6c0,.2.1.4.2.6,0,.2.2.3.3.4s.3.2.4.2h.8c.1,0,.2,0,.2-.1,0,0,.1,0,.2-.1l.2-.2h0l.2-.2Z"/>
        <path class="st0" d="M171.5,175.8c0,.3.1.5,0,.8,0,.2,0,.5-.2.7-.1.2-.3.4-.5.5-.2.2-.4.3-.7.3s-.5.1-.8,0c-.2,0-.5,0-.7-.2-.2-.1-.4-.3-.5-.5-.2-.2-.3-.4-.3-.7s-.1-.5,0-.8c0-.3,0-.5.2-.7.1-.2.3-.4.5-.5s.4-.3.7-.3.5-.1.8,0c.2,0,.5,0,.7.2s.4.3.5.5c.2.2.3.4.3.7ZM170.9,176c0-.2-.1-.4-.3-.5-.1-.2-.2-.3-.4-.4s-.3-.1-.5-.2h-.5c-.2,0-.3.1-.5.2s-.2.2-.3.4c0,.2-.1.3-.1.5v.6c0,.2.1.4.3.6.1.2.2.3.4.4.1,0,.3.1.5.2s.4,0,.5,0,.3-.1.5-.2c.1-.1.2-.2.3-.4s.1-.3.1-.5v-.6h0Z"/>
        <path class="st0" d="M175.4,172.3l1.4,3.5h-.3q0,.1-.1.1h-.1l-3-1.7h0v.2l1,2.4-.5.2-1.4-3.5h.3q0-.1.1-.1h.1l3,1.7h0v-.2l-1-2.4.5-.2Z"/>
        <path class="st0" d="M180.8,172.9h.3c0,.3-.2.6-.3.7-.1.2-.4.4-.6.5-.2.1-.5.2-.7.2h-.7c-.2,0-.4-.2-.6-.4s-.3-.4-.5-.6c-.1-.2-.2-.5-.2-.7v-.7c0-.2.2-.4.3-.6.2-.2.4-.3.6-.5.2-.1.5-.2.7-.2h.6v.3h-.6c-.1,0-.2,0-.4.1-.2,0-.3.2-.4.3-.1.1-.2.3-.2.4v.5c0,.2,0,.4.2.6.1.2.2.4.4.5.1.1.3.2.4.3s.3,0,.5,0,.3,0,.5-.1c0,0,.2,0,.2-.2l.2-.2s0-.1.1-.2c0,0,0-.1.1-.2h0v.2Z"/>
        <path class="st0" d="M184.9,169.1c.2.2.3.5.3.7v.7c0,.2-.1.4-.3.6-.1.2-.3.4-.6.5-.2.1-.5.2-.7.3h-.7c-.2,0-.4-.2-.6-.3-.2-.1-.4-.3-.5-.6-.2-.2-.3-.5-.3-.7v-.7c0-.2.1-.4.3-.6.1-.2.3-.4.6-.5.2-.2.5-.2.7-.3h.7c.2,0,.4.2.6.3.2.1.4.3.5.6ZM184.4,169.4c-.1-.2-.3-.3-.4-.5-.1-.1-.3-.2-.5-.2h-.5c-.2,0-.3,0-.5.2-.2.1-.3.2-.4.4,0,.1-.2.3-.2.5v.5c0,.2.1.4.2.6.1.2.3.3.4.5.1.1.3.2.5.2h.5c.2,0,.3,0,.5-.2.2-.1.3-.2.4-.4s.2-.3.2-.5v-.5c0-.2-.1-.4-.2-.6Z"/>
        <path class="st0" d="M188.5,168.2c.1,0,.2-.2.3-.3s0-.2.1-.4v-.4c0-.1-.1-.2-.2-.4l-1.4-1.8.4-.3,1.4,1.8c.1.2.2.4.3.5v.6c0,.2,0,.4-.2.5s-.2.3-.4.5c-.2.1-.4.2-.6.3h-.6c-.2,0-.4,0-.5-.2-.2-.1-.3-.2-.5-.4l-1.4-1.8.4-.3,1.4,1.8c0,.1.2.2.3.3.1,0,.2.1.3.1h.4q.2,0,.4-.2h.1Z"/>
        <path class="st0" d="M193.6,164.3l-.4.3h-.2l-1.6-.3h-.2l-.3.2,1.1,1.1-.4.4-2.6-2.7.8-.7c.2-.2.3-.3.5-.4s.3-.1.5-.1h.4c.1,0,.2.1.4.3,0,0,.2.2.2.3v.7c0,.1,0,.2-.2.4h.3l1.8.3v.2ZM191,164c.1,0,.2-.2.2-.3v-.6s0-.2-.2-.2c-.1-.2-.3-.2-.5-.2s-.4.1-.6.3l-.4.4.9,1,.4-.3h.2Z"/>
        <path class="st0" d="M193.9,159.4h-.5s-.2.1-.2.2c0,0-.1.2-.2.2s0,.2,0,.2v.2q0,0,.1.2h.2c0,.1.2.1.3.1s.2,0,.3-.1c0,0,.2-.1.3-.2.1,0,.2-.1.3-.2h.6c.1,0,.2.1.3.2.1.1.2.2.3.4s.1.3.1.4v.5c0,.2-.2.3-.3.5,0,0-.2.2-.3.2,0,0-.2.1-.3.2,0,0-.2,0-.3.1s-.2,0-.3,0v-.3h.3s.2,0,.3-.1c0,0,.2-.1.3-.2,0,0,.1-.2.2-.3v-.5s0-.2-.2-.2h-.2c0-.1-.2-.1-.3-.1s-.2,0-.3.1c0,0-.2.1-.3.2-.1,0-.2.1-.3.2h-.6c-.1,0-.2-.1-.4-.2,0,0-.2-.2-.2-.3v-.8c0,0,.1-.3.3-.4.1-.2.3-.3.5-.4.2,0,.3-.1.5-.1v.3h0Z"/>
      </g>
      <g>
        <path class="st0" d="M126.4,115.8c0,1-.2,1.8-.5,2.6-.3.8-.7,1.5-1.3,2-.6.6-1.2,1-2,1.3s-1.7.5-2.6.5h-4.8v-12.9h4.8c.9,0,1.8.2,2.6.5s1.5.7,2,1.3c.6.6,1,1.2,1.3,2s.5,1.7.5,2.6h0ZM124.7,115.8c0-.8,0-1.5-.3-2.1s-.5-1.2-.9-1.6-.9-.8-1.4-1-1.2-.3-1.9-.3h-3.1v10.1h3.1c.7,0,1.3,0,1.9-.3s1-.6,1.4-1,.7-1,.9-1.6.3-1.3.3-2.1h0Z"/>
        <path class="st0" d="M138.9,122.2h-1.4c-.2,0-.3,0-.4,0s-.2-.2-.2-.3l-1.2-3.1h-5.8l-1.2,3.1c0,0-.1.2-.2.3s-.2,0-.4,0h-1.4l5.2-12.9h1.8l5.2,12.9h0ZM135.3,117.4l-2-5.3c0-.2-.1-.3-.2-.5,0-.2-.1-.4-.2-.7-.1.5-.3.9-.4,1.2l-2,5.2h4.8,0Z"/>
        <path class="st0" d="M151,109.3v12.9h-1.2s-.2,0-.3-.2l-7.5-9.7v10h-1.5v-12.9h1.3c.1,0,0,0,.1,0l7.5,9.7v-10h1.6Z"/>
        <path class="st0" d="M163.3,119.6s.2,0,.3,0l.7.7c-.5.6-1.2,1.1-1.9,1.4-.8.3-1.7.5-2.7.5s-1.8-.2-2.5-.5-1.4-.8-1.9-1.4-.9-1.3-1.2-2.1c-.3-.8-.4-1.7-.4-2.7s.2-1.9.5-2.7c.3-.8.7-1.5,1.3-2.1s1.2-1,2-1.4,1.6-.5,2.6-.5,1.7,0,2.4.4,1.3.7,1.9,1.2l-.6.8s0,0-.1,0h-.2c0,0-.2,0-.4-.2s-.4-.2-.6-.4c-.3,0-.6-.3-.9-.4s-.8-.2-1.4-.2-1.3,0-1.8.3c-.6.2-1,.6-1.4,1s-.7,1-.9,1.6-.3,1.3-.3,2.1.1,1.5.3,2.2c.2.6.5,1.2.9,1.6s.9.8,1.4,1,1.1.3,1.8.3h1c.3,0,.6,0,.9-.2.3,0,.5-.2.7-.4s.4-.3.7-.5c.1,0,.2,0,.3,0l-.5.5Z"/>
        <path class="st0" d="M167.9,122.2h-1.7v-12.9h1.7v12.9Z"/>
        <path class="st0" d="M181.5,109.3v12.9h-1.2s-.2,0-.3-.2l-7.5-9.7v10h-1.5v-12.9h1.3c.1,0,0,0,.1,0l7.5,9.7v-10h1.6Z"/>
        <path class="st0" d="M195.2,116v5c-.6.5-1.3.8-2.1,1s-1.5.3-2.4.3-2-.2-2.8-.5-1.5-.8-2.1-1.4-1-1.3-1.4-2.1c-.3-.8-.5-1.7-.5-2.7s.2-1.9.5-2.7.8-1.5,1.3-2.1c.6-.6,1.3-1,2.1-1.3s1.7-.5,2.7-.5,1,0,1.4,0,.8.2,1.2.3c.4,0,.7.3,1,.5s.6.4.9.7l-.5.8c0,0-.2.2-.3.2h-.4c-.1,0-.3-.2-.5-.3s-.4-.2-.7-.3c-.3,0-.6-.2-.9-.3-.4,0-.8,0-1.3,0s-1.4,0-2,.4-1.1.6-1.5,1-.7,1-1,1.6c-.2.6-.3,1.3-.3,2.1s.1,1.5.3,2.2.6,1.2,1,1.6,1,.8,1.6,1,1.3.4,2.1.4,1.1,0,1.6-.2c.5,0,.9-.3,1.4-.6v-2.8h-2.3c-.1,0-.1,0-.1-.2v-1h4Z"/>
      </g>
      <g>
        <path class="st0" d="M123.4,138.8s.2,0,.3.1l.7.7c-.5.6-1.2,1.1-1.9,1.4-.8.3-1.7.5-2.7.5s-1.8-.2-2.5-.5-1.4-.8-1.9-1.4c-.5-.6-.9-1.3-1.2-2.1-.3-.8-.4-1.7-.4-2.7s.2-1.9.5-2.7.7-1.5,1.3-2.1c.6-.6,1.2-1,2-1.4.8-.3,1.6-.5,2.6-.5s1.7.1,2.4.4c.7.3,1.3.7,1.9,1.2l-.6.8s0,.1,0,.1h-.2c0,0-.2,0-.4-.2s-.4-.2-.6-.4c-.3-.1-.6-.3-.9-.4s-.8-.2-1.4-.2-1.3.1-1.8.3-1,.6-1.4,1-.7,1-.9,1.6-.3,1.3-.3,2.1,0,1.5.3,2.2.5,1.2.9,1.6c.4.4.9.8,1.4,1s1.1.3,1.8.3h1c.3,0,.6-.1.9-.2.3,0,.5-.2.7-.4.2-.1.4-.3.7-.5,0,0,.2-.1.3-.1l-.5.5Z"/>
        <path class="st0" d="M138.5,135c0,1-.2,1.9-.5,2.7s-.7,1.5-1.3,2.1-1.2,1-2,1.4c-.8.3-1.7.5-2.6.5s-1.8-.2-2.6-.5-1.5-.8-2-1.4c-.6-.6-1-1.3-1.3-2.1s-.5-1.7-.5-2.7.2-1.9.5-2.7.7-1.5,1.3-2.1,1.2-1,2-1.4c.8-.3,1.6-.5,2.6-.5s1.8.2,2.6.5,1.5.8,2,1.4,1,1.3,1.3,2.1.5,1.7.5,2.7ZM136.7,135c0-.8-.1-1.5-.3-2.1s-.5-1.2-.9-1.6c-.4-.4-.9-.8-1.4-1-.6-.2-1.2-.4-1.9-.4s-1.3.1-1.9.4c-.6.2-1,.6-1.4,1s-.7,1-.9,1.6-.3,1.3-.3,2.1,0,1.5.3,2.1c.2.6.5,1.2.9,1.6.4.4.9.8,1.4,1,.6.2,1.2.3,1.9.3s1.3-.1,1.9-.3c.6-.2,1-.6,1.4-1s.7-1,.9-1.6.3-1.3.3-2.1Z"/>
        <path class="st0" d="M151.9,128.6v12.9h-1.2s-.2-.1-.3-.2l-7.5-9.7v10h-1.5v-12.9h1.3c.1,0,0,0,.1.1l7.5,9.7v-10h1.6Z"/>
        <path class="st0" d="M164.3,130h-4.2v11.4h-1.7v-11.4h-4.2v-1.5h10.1v1.5h0Z"/>
        <path class="st0" d="M174.6,140.1v1.4h-8v-12.9h8v1.4h-6.2v4.3h5v1.4h-5v4.4h6.2Z"/>
        <path class="st0" d="M184.3,130.6s-.1.2-.2.2h-.2c0,0-.2,0-.4-.2s-.3-.2-.5-.3-.5-.2-.7-.3c-.3-.1-.6-.2-1.1-.2s-.7,0-1,.2c-.3.1-.5.2-.7.4s-.4.4-.5.6c-.1.2-.2.5-.2.8s0,.7.3.9c.2.2.4.4.7.6.3.2.6.3,1,.4.4.1.7.3,1.1.4s.8.3,1.1.4c.4.2.7.4,1,.6.3.3.5.6.7.9.2.4.3.8.3,1.4s0,1.1-.3,1.6-.5.9-.8,1.3c-.4.4-.8.7-1.4.9-.5.2-1.1.3-1.8.3s-1.6-.2-2.3-.5-1.3-.7-1.8-1.2l.5-.8.2-.2h.5s.2.1.3.2.3.2.4.3.3.2.6.3c.2,0,.4.2.7.2h.9c.3,0,.8,0,1.1-.2.3-.1.6-.3.8-.5s.4-.5.5-.7c.1-.3.2-.6.2-1s0-.7-.3-1-.4-.5-.7-.6c-.3-.2-.6-.3-1-.4-.4-.1-.8-.2-1.1-.4s-.8-.3-1.1-.4c-.4-.2-.7-.4-1-.6-.3-.3-.5-.6-.7-1s-.3-.9-.3-1.4,0-.9.3-1.3c.2-.4.4-.8.8-1.1.3-.3.8-.6,1.3-.8s1.1-.3,1.7-.3,1.4.1,2,.3,1.1.6,1.6,1l-.4.8v.4Z"/>
        <path class="st0" d="M196.9,130h-4.2v11.4h-1.7v-11.4h-4.2v-1.5h10.1v1.5h0Z"/>
      </g>
      <path class="st0" d="M155,192.5c-37.2,0-67.5-30.3-67.5-67.5s30.3-67.5,67.5-67.5,67.5,30.3,67.5,67.5-30.3,67.5-67.5,67.5ZM155,60.8c-35.4,0-64.2,28.8-64.2,64.2s28.8,64.2,64.2,64.2,64.2-28.8,64.2-64.2-28.8-64.2-64.2-64.2Z"/>
      <rect class="st0" x="117.4" y="101" width="13.2" height="1.7"/>
      <rect class="st0" x="179.4" y="147.3" width="13.2" height="1.7"/>
    </g>
  </g>
</svg>