<?xml version="1.0" encoding="UTF-8"?>
<svg xmlns="http://www.w3.org/2000/svg" version="1.1" viewBox="0 0 150 80">
  <!-- Generator: Adobe Illustrator 29.0.0, SVG Export Plug-In . SVG Version: 2.1.0 Build 186)  -->
  <defs>
    <style>
      .st0 {
        fill: #fff;
      }

      .st1 {
        fill: #336cff;
      }
    </style>
  </defs>
  <g id="Background">
    <rect class="st1" width="150" height="80"/>
  </g>
  <g id="Template">
    <g>
      <g>
        <path class="st0" d="M38.3,28.2v20.3h-3.3v-13.1c0-.5,0-1.1,0-1.7l-6.1,11.5c-.3.6-.7.8-1.3.8h-.5c-.6,0-1-.3-1.3-.8l-6.2-11.6c0,.3,0,.6,0,.9,0,.3,0,.6,0,.8v13.1h-3.3v-20.3h2.9c.2,0,.3,0,.4,0,.1,0,.2,0,.3,0,0,0,.2,0,.3.2,0,0,.2.2.2.3l6.1,11.3c.2.3.3.6.4.9.1.3.3.6.4,1,.1-.3.3-.7.4-1s.3-.6.4-.9l6-11.3c0-.1.2-.3.2-.3,0,0,.2-.1.3-.2,0,0,.2,0,.3,0,.1,0,.3,0,.4,0h2.9Z"/>
        <path class="st0" d="M54.2,40.7v7.9h-3.8v-7.9l-7.4-12.4h3.3c.3,0,.6,0,.8.2.2.2.4.4.5.6l3.7,6.8c.2.4.4.8.6,1.1.2.4.3.7.4,1.1.1-.4.3-.7.4-1.1.2-.4.3-.7.5-1.1l3.7-6.8c.1-.2.3-.4.5-.6.2-.2.5-.3.8-.3h3.3l-7.4,12.4Z"/>
        <path class="st0" d="M81.5,31.3h-6.1v17.2h-3.8v-17.2h-6.1v-3.1h16v3.1Z"/>
        <path class="st0" d="M102.4,48.6h-3.4c-.6,0-1.1-.3-1.4-.8l-4.3-6.5c-.2-.2-.3-.4-.5-.5-.2-.1-.5-.2-.9-.2h-1.6v7.9h-3.8v-20.3h6.2c1.4,0,2.6.1,3.5.4,1,.3,1.8.7,2.4,1.2.6.5,1.1,1.1,1.4,1.8s.5,1.5.5,2.4-.1,1.3-.3,1.9c-.2.6-.5,1.2-.9,1.7-.4.5-.8.9-1.4,1.3-.6.4-1.2.7-1.9.9.2.1.5.3.7.5.2.2.4.4.6.7l5.1,7.5ZM92.7,37.9c.7,0,1.3,0,1.9-.3s1-.4,1.3-.7c.3-.3.6-.7.8-1.1.2-.4.3-.9.3-1.4,0-1-.3-1.8-1-2.4-.7-.6-1.7-.8-3.1-.8h-2.4v6.7h2.4Z"/>
        <path class="st0" d="M111,48.6h-3.8v-20.3h3.8v20.3Z"/>
        <path class="st0" d="M124.8,28.2c1.4,0,2.5.2,3.5.5s1.8.8,2.5,1.3,1.1,1.3,1.4,2.1.5,1.7.5,2.6-.2,1.9-.5,2.7c-.3.8-.8,1.5-1.5,2.1-.7.6-1.5,1-2.5,1.4-1,.3-2.1.5-3.5.5h-2.8v7.2h-3.8v-20.3h6.6ZM124.8,38.5c.7,0,1.3,0,1.8-.3.5-.2.9-.4,1.3-.7s.6-.7.8-1.2c.2-.5.3-1,.3-1.6s0-1-.3-1.5c-.2-.4-.4-.8-.8-1.1-.3-.3-.8-.5-1.3-.7-.5-.2-1.1-.2-1.8-.2h-2.8v7.3h2.8Z"/>
      </g>
      <g>
        <path class="st0" d="M14.5,58.6h-3.2v9h-2v-9h-3.2v-1.6h8.4v1.6Z"/>
        <path class="st0" d="M25.5,67.6h-1.8c-.3,0-.6-.1-.7-.4l-2.2-3.4c0-.1-.2-.2-.3-.3-.1,0-.2,0-.4,0h-.8v4.2h-2v-10.6h3.2c.7,0,1.3,0,1.9.2.5.1.9.4,1.3.6s.6.6.7,1c.2.4.2.8.2,1.2s0,.7-.2,1c-.1.3-.3.6-.5.9-.2.3-.4.5-.7.7-.3.2-.6.4-1,.5.1,0,.2.2.4.3s.2.2.3.4l2.7,3.9ZM20.5,62c.4,0,.7,0,1-.1.3,0,.5-.2.7-.4.2-.2.3-.4.4-.6,0-.2.1-.5.1-.7,0-.5-.2-1-.5-1.2-.4-.3-.9-.4-1.6-.4h-1.3v3.5h1.2Z"/>
        <path class="st0" d="M37.9,67.6h-1.5c-.2,0-.3,0-.4-.1-.1,0-.2-.2-.2-.3l-.8-2.2h-4.4l-.8,2.2c0,.1-.1.2-.2.3s-.3.1-.4.1h-1.5l4.2-10.6h2l4.2,10.6ZM34.4,63.6l-1.3-3.5c0-.2-.1-.3-.2-.6s-.1-.4-.2-.7c0,.2-.1.5-.2.7,0,.2-.1.4-.2.6l-1.3,3.5h3.4Z"/>
        <path class="st0" d="M48.8,57l-4.3,10.6h-1.8l-4.3-10.6h1.6c.2,0,.3,0,.4.1s.2.2.2.3l2.5,6.5c0,.2.2.4.2.7,0,.3.1.5.2.8,0-.3.1-.5.2-.8,0-.3.1-.5.2-.7l2.5-6.5c0-.1.1-.2.2-.3s.3-.1.4-.1h1.6Z"/>
        <path class="st0" d="M53.3,58.6v3h3.7v1.5h-3.7v3h4.7v1.6h-6.7v-10.6h6.7v1.6h-4.7Z"/>
        <path class="st0" d="M67.4,66v1.6h-6.2v-10.6h2v9h4.3Z"/>
        <path class="st0" d="M84.5,67.6h-1.5c-.2,0-.3,0-.4-.1-.1,0-.2-.2-.2-.3l-.8-2.2h-4.4l-.8,2.2c0,.1-.1.2-.2.3-.1,0-.3.1-.4.1h-1.5l4.2-10.6h2l4.2,10.6ZM81,63.6l-1.3-3.5c0-.2-.1-.3-.2-.6,0-.2-.1-.4-.2-.7,0,.2-.1.5-.2.7,0,.2-.1.4-.2.6l-1.3,3.5h3.4Z"/>
        <path class="st0" d="M95.4,62.3v4.3c-.5.4-1.1.7-1.7.9s-1.3.3-2,.3-1.7-.1-2.4-.4-1.3-.6-1.8-1.1c-.5-.5-.9-1.1-1.2-1.7-.3-.7-.4-1.4-.4-2.2s.1-1.5.4-2.2c.3-.7.6-1.2,1.1-1.7.5-.5,1.1-.9,1.7-1.1s1.4-.4,2.3-.4.8,0,1.2.1c.4,0,.7.2,1,.3s.6.3.9.4c.3.2.5.4.7.6l-.6.9c0,.1-.2.2-.3.3-.1,0-.3,0-.5-.1-.2,0-.3-.2-.5-.3-.2,0-.3-.2-.5-.2-.2,0-.4-.1-.7-.2s-.5,0-.9,0c-.5,0-1,0-1.4.3-.4.2-.8.4-1.1.8-.3.3-.5.7-.7,1.2-.2.5-.2,1-.2,1.5s0,1.2.3,1.6c.2.5.4.9.7,1.2s.7.6,1.1.8.9.3,1.5.3.7,0,1.1-.1c.3,0,.6-.2.9-.3v-1.9h-1.3c-.1,0-.2,0-.3-.1s-.1-.2-.1-.3v-1.1h3.5Z"/>
        <path class="st0" d="M100.8,58.6v3h3.7v1.5h-3.7v3h4.7v1.6h-6.7v-10.6h6.7v1.6h-4.7Z"/>
        <path class="st0" d="M117.7,57v10.6h-1c-.2,0-.3,0-.4,0-.1,0-.2-.1-.3-.3l-5.6-7.1c0,.3,0,.6,0,.9v6.5h-1.7v-10.6h1c0,0,.2,0,.2,0,0,0,.1,0,.2,0,0,0,0,0,.1,0,0,0,0,0,.1.2l5.6,7.1c0-.2,0-.3,0-.5,0-.2,0-.3,0-.5v-6.5h1.7Z"/>
        <path class="st0" d="M128.9,65.1c.1,0,.2,0,.3.1l.8.8c-.4.5-1,.9-1.6,1.2-.6.3-1.4.4-2.3.4s-1.5-.1-2.1-.4c-.6-.3-1.2-.6-1.6-1.1-.4-.5-.8-1.1-1-1.7-.2-.7-.4-1.4-.4-2.2s.1-1.5.4-2.2c.3-.7.6-1.2,1.1-1.7.5-.5,1-.9,1.7-1.1s1.4-.4,2.1-.4,1.5.1,2.1.4c.6.3,1.1.6,1.5,1l-.7.9c0,0,0,.1-.2.2,0,0-.1,0-.3,0s-.1,0-.2,0c0,0-.2,0-.3-.2,0,0-.2-.1-.3-.2-.1,0-.3-.1-.4-.2-.2,0-.3-.1-.6-.2-.2,0-.5,0-.7,0-.5,0-.9,0-1.3.3-.4.2-.7.4-1,.7-.3.3-.5.7-.7,1.2-.2.5-.2,1-.2,1.6s0,1.1.3,1.6c.2.5.4.9.7,1.2.3.3.6.6,1,.7s.8.3,1.3.3.5,0,.7,0c.2,0,.4,0,.6-.1.2,0,.4-.1.5-.2.2-.1.3-.2.5-.4,0,0,.1,0,.2-.1,0,0,.1,0,.2,0Z"/>
        <path class="st0" d="M137.5,63.5v4.1h-2v-4.1l-3.9-6.5h1.7c.2,0,.3,0,.4.1s.2.2.3.3l1.9,3.6c.1.2.2.4.3.6,0,.2.2.4.2.6,0-.2.1-.4.2-.6,0-.2.2-.4.3-.6l1.9-3.6c0-.1.1-.2.2-.3.1,0,.2-.1.4-.1h1.8l-3.9,6.5Z"/>
      </g>
      <rect class="st0" x="4.8" y="10.9" width="137.9" height="1.7"/>
      <rect class="st0" x="4.8" y="17.9" width="137.9" height="1.7"/>
    </g>
  </g>
</svg>