<?xml version="1.0" encoding="UTF-8"?>
<svg id="Calque_1" xmlns="http://www.w3.org/2000/svg" version="1.1" viewBox="0 0 572 100">
  <!-- Generator: Adobe Illustrator 29.0.0, SVG Export Plug-In . SVG Version: 2.1.0 Build 186)  -->
  <defs>
    <style>
      .st0 {
        fill: #376cb2;
      }

      .st1 {
        fill: #fff;
      }

      .st2 {
        fill: #51bab2;
      }
    </style>
  </defs>
  <g>
    <g>
      <path class="st1" d="M26.9,1.6"/>
      <circle class="st1" cx="34.4" cy="6.7" r="1.2"/>
      <path class="st1" d="M40.6,15.3c-1.1,0-2.1-.9-2.1-2.1s.9-2.1,2.1-2.1,2.1.9,2.1,2.1-.9,2.1-2.1,2.1Z"/>
      <path class="st1" d="M44.8,24c-1.5,0-2.7-1.2-2.7-2.7s1.2-2.7,2.7-2.7,2.7,1.2,2.7,2.7-1.2,2.7-2.7,2.7Z"/>
      <path class="st1" d="M46.1,33.4c-1.8,0-3.2-1.4-3.2-3.2s1.4-3.2,3.2-3.2,3.2,1.4,3.2,3.2-1.4,3.2-3.2,3.2Z"/>
      <path class="st1" d="M44.7,42.6c-1.9,0-3.5-1.6-3.5-3.5s1.6-3.5,3.5-3.5,3.5,1.6,3.5,3.5-1.6,3.5-3.5,3.5Z"/>
      <path class="st1" d="M41.4,51.2c-2,0-3.7-1.6-3.7-3.7s1.6-3.7,3.7-3.7,3.7,1.6,3.7,3.7-1.6,3.7-3.7,3.7Z"/>
      <path class="st1" d="M36.9,59c-2,0-3.7-1.6-3.7-3.7s1.6-3.7,3.7-3.7,3.7,1.6,3.7,3.7-1.6,3.7-3.7,3.7Z"/>
      <path class="st1" d="M32.7,66.8c-1.9,0-3.4-1.5-3.4-3.4s1.5-3.4,3.4-3.4,3.4,1.5,3.4,3.4-1.5,3.4-3.4,3.4Z"/>
      <path class="st1" d="M30.8,75.1c-1.6,0-2.9-1.3-2.9-2.9s1.3-2.9,2.9-2.9,2.9,1.3,2.9,2.9-1.3,2.9-2.9,2.9Z"/>
      <path class="st1" d="M31.8,83.5c-1.3,0-2.3-1-2.3-2.3s1-2.3,2.3-2.3,2.3,1,2.3,2.3-1,2.3-2.3,2.3Z"/>
      <circle class="st1" cx="34.7" cy="89.8" r="1.6"/>
      <path class="st1" d="M38.3,97.1c-.5,0-1-.4-1-1s.4-1,1-1,1,.4,1,1-.4,1-1,1Z"/>
    </g>
    <path class="st0" d="M77,52c0-18-12.5-33.1-29.3-37,.9.6,1.7,1.4,2.6,2.3.6.5,1,1.2,1.5,1.8.5.6,1,1.3,1.4,2.1.4.7.8,1.5,1.2,2.3.3.8.6,1.7.9,2.5,1,3.5,1.3,7.3,1,10.9-.4,3.6-1.3,7.1-2.6,10.3-.3.8-.6,1.6-1,2.4l-.5,1.2-.3.6v.3c-.1,0-.2.1-.2.1v.2c-.1,0-.6,1-.6,1-.2.3-.3.6-.5,1l-1.2,2c-1.5,2.6-3,4.8-4.4,6.9-1.3,2.1-2.5,3.9-3.5,5.5-.2.4-.5.8-.7,1.2-.2.4-.4.8-.6,1.2-.2.4-.4.8-.6,1.2l-.2.6v.3c-.1,0-.2,0-.2,0,0,.2,0-.2,0-.2h0s0,0,0,0v.2c-.1.3-.2.6-.3.9,0,.3-.1.4-.2.6-.2.3-.2.8-.4,1.3-.2.9-.4,1.8-.6,2.7-.3,1.8-.5,3.6-.5,5.3,0,1,0,1.9,0,2.8,3.6-1.3,19.5-7.8,26.8-24.3,0,0-2.4,17.3-22.7,27.6,19.9-1.2,35.7-17.7,35.7-37.9Z"/>
    <path class="st2" d="M38.9,21.4c-.1-.4-.2-.8-.3-1.2,0-.4-.3-.7-.4-1.1-.3-.7-.6-1.5-.9-2.1,0-.1-.1-.3-.2-.4-6,2.7-18,9.5-24,23.2,0,0,2-14.7,18.2-25.1C14,18.3,1,33.6,1,52s13.1,33.8,30.5,37.3c-.7-.6-1.4-1.2-2.1-2-1.5-1.5-3-3.5-4.2-5.9-.6-1.2-1.2-2.5-1.7-4-.2-.7-.5-1.4-.6-2.3,0-.4-.2-.8-.3-1.3,0-.3-.1-.6-.2-.9v-.2c0,0,0,0,0,0h0s0-.4,0-.3v-.2s0-.6,0-.6c0-.4,0-.9-.1-1.3,0-.9,0-1.7,0-2.6,0-.9.1-1.8.2-2.7.1-.9.2-1.8.4-2.6.7-3.5,1.9-6.7,3.2-9.7,1.4-3,2.9-5.6,4.3-8,.7-1.2,1.4-2.3,2.1-3.5l.4-.7.5-.7c.3-.5.6-1,.9-1.5,1.1-1.9,2.1-3.8,2.9-5.4.8-1.7,1.3-3.1,1.7-4.6.5-1.5.5-2.8.5-4.4-.1-.7-.1-1.6-.4-2.3Z"/>
  </g>
  <g>
    <path class="st1" d="M113.7,68.3c-2.7-1.6-4.7-3.9-6.2-6.8-1.4-3-2.2-6.5-2.2-10.5s.7-7.5,2.2-10.5c1.4-3,3.5-5.3,6.2-6.8,2.7-1.6,5.8-2.4,9.5-2.4s4.8.4,6.9,1.2c2.2.8,4.1,1.9,5.7,3.4.6.5.9,1.2.9,1.9s-.1,1-.4,1.3c-.3.4-.6.6-1,.6s-1-.2-1.6-.6c-1.9-1.5-3.6-2.5-5.1-3.1-1.5-.6-3.3-.9-5.2-.9-4.2,0-7.5,1.4-9.8,4.1-2.3,2.8-3.4,6.7-3.4,11.7s1.1,9,3.4,11.8c2.3,2.8,5.5,4.1,9.8,4.1s3.7-.3,5.2-.9c1.5-.6,3.2-1.6,5.1-3.1.6-.4,1.2-.6,1.6-.6s.7.2,1,.5c.3.4.4.8.4,1.4s-.3,1.4-.9,1.9c-1.6,1.5-3.5,2.6-5.7,3.4-2.2.8-4.5,1.2-6.9,1.2-3.7,0-6.8-.8-9.5-2.4Z"/>
    <path class="st1" d="M163.6,53.4v14.9c0,.7-.2,1.2-.6,1.6-.4.4-.9.6-1.6.6s-1.2-.2-1.6-.6c-.4-.4-.6-.9-.6-1.6v-2.6c-.7,1.6-1.8,2.8-3.2,3.6-1.4.9-3.1,1.3-4.9,1.3s-3.3-.3-4.7-1c-1.4-.7-2.6-1.7-3.4-2.9-.8-1.2-1.3-2.6-1.3-4.1s.5-3.6,1.5-4.7c1-1.1,2.7-1.9,5-2.4,2.3-.5,5.6-.7,9.8-.7h1.2v-1.8c0-2.2-.4-3.8-1.3-4.8-.9-1-2.3-1.5-4.4-1.5s-5,.7-7.6,2c-1,.6-1.7.9-2.1.9s-.8-.2-1.1-.5c-.3-.3-.4-.7-.4-1.3s.2-1,.5-1.3c.3-.4.8-.8,1.5-1.2,1.3-.7,2.7-1.3,4.4-1.7,1.6-.4,3.2-.6,4.8-.6,6.7,0,10,3.5,10,10.5ZM157.1,64.9c1.4-1.5,2.1-3.4,2.1-5.7v-1.6h-1c-3.2,0-5.7.1-7.3.4-1.7.3-2.9.7-3.6,1.4-.7.6-1.1,1.6-1.1,2.8s.5,2.6,1.6,3.5c1,.9,2.3,1.4,3.9,1.4s4-.7,5.4-2.2Z"/>
    <path class="st1" d="M191.3,44.6c1.8,1.1,3.2,2.7,4.2,4.8,1,2.1,1.5,4.5,1.5,7.2s-.5,5.2-1.5,7.3-2.4,3.7-4.2,4.9c-1.8,1.2-3.9,1.8-6.2,1.8s-3.9-.5-5.5-1.4c-1.6-.9-2.7-2.2-3.5-3.9v3c0,.7-.2,1.2-.6,1.6-.4.4-.9.6-1.6.6s-1.2-.2-1.6-.6c-.4-.4-.6-.9-.6-1.6v-34.8c0-.6.2-1.1.6-1.5s.9-.6,1.6-.6,1.2.2,1.6.6c.4.4.6.9.6,1.6v14.7c.8-1.7,2-3,3.5-3.9,1.6-.9,3.4-1.4,5.5-1.4s4.4.6,6.2,1.7ZM190.2,64.2c1.4-1.8,2.1-4.3,2.1-7.6s-.7-5.6-2.1-7.4c-1.4-1.8-3.4-2.6-6-2.6s-4.6.9-6,2.6c-1.4,1.8-2.1,4.3-2.1,7.5s.7,5.8,2.1,7.5c1.4,1.8,3.4,2.7,6,2.7s4.6-.9,6-2.7Z"/>
    <path class="st1" d="M203.7,36.5c-.5-.5-.8-1.2-.8-2s.3-1.5.8-2c.5-.5,1.3-.8,2.1-.8s1.6.3,2.1.8c.5.5.8,1.2.8,2s-.3,1.5-.8,2c-.5.5-1.3.8-2.1.8s-1.6-.3-2.1-.8ZM204.2,69.9c-.4-.4-.6-.9-.6-1.6v-23.1c0-.7.2-1.2.6-1.6.4-.4,1-.6,1.6-.6s1.2.2,1.6.6c.4.4.6.9.6,1.6v23.1c0,.7-.2,1.3-.6,1.6-.4.4-.9.5-1.6.5s-1.2-.2-1.6-.6Z"/>
    <path class="st1" d="M239.3,53.5v14.8c0,.7-.2,1.2-.6,1.6-.4.4-.9.6-1.6.6s-1.2-.2-1.6-.6c-.4-.4-.6-.9-.6-1.6v-14.6c0-2.5-.5-4.3-1.5-5.4-1-1.1-2.5-1.7-4.6-1.7s-4.4.7-5.9,2.2c-1.5,1.5-2.2,3.5-2.2,6.1v13.4c0,.7-.2,1.2-.6,1.6-.4.4-.9.6-1.6.6s-1.2-.2-1.6-.6c-.4-.4-.6-.9-.6-1.6v-23.1c0-.7.2-1.2.6-1.6s.9-.6,1.6-.6,1.2.2,1.6.6c.4.4.6.9.6,1.5v2.8c.9-1.6,2.1-2.9,3.7-3.8,1.6-.9,3.4-1.3,5.4-1.3,6.4,0,9.6,3.5,9.6,10.6Z"/>
    <path class="st1" d="M269.1,64.5c.3.3.4.7.4,1.3,0,.9-.6,1.8-1.9,2.5-1.3.8-2.7,1.3-4.2,1.7-1.5.4-2.9.6-4.3.6-4.1,0-7.4-1.2-9.8-3.7-2.4-2.4-3.6-5.8-3.6-10.1s.5-5.2,1.6-7.3c1.1-2.1,2.5-3.7,4.5-4.9,1.9-1.2,4.1-1.8,6.5-1.8,3.5,0,6.2,1.1,8.3,3.4,2,2.3,3.1,5.3,3.1,9.2s-.1,1.3-.4,1.6c-.3.3-.8.5-1.4.5h-17.6c.3,6.3,3.3,9.4,8.9,9.4s2.6-.2,3.7-.6c1-.4,2.1-.9,3.3-1.6.9-.5,1.6-.8,1.9-.8s.7.2,1,.5ZM252.8,48.5c-1.4,1.5-2.2,3.5-2.5,6.2h15.5c0-2.7-.7-4.8-2-6.2-1.3-1.4-3.1-2.2-5.4-2.2s-4.2.7-5.6,2.2Z"/>
    <path class="st1" d="M290.3,68.8c0,.6-.2,1.1-.7,1.4-.5.3-1.1.4-2.1.4h-1.5c-2.9-.3-5.1-1.2-6.5-2.7-1.4-1.5-2.1-3.9-2.1-7v-13.7h-3.7c-.6,0-1.1-.2-1.5-.5-.3-.3-.5-.7-.5-1.2s.2-1,.5-1.3c.3-.3.8-.5,1.5-.5h3.7v-6.2c0-.7.2-1.2.6-1.6.4-.4.9-.6,1.6-.6s1.2.2,1.6.6c.4.4.6.9.6,1.6v6.2h6.1c.6,0,1,.2,1.4.5.3.3.5.8.5,1.3s-.2.9-.5,1.2c-.3.3-.8.5-1.4.5h-6.1v14c0,2,.4,3.5,1.2,4.4.8.9,2.1,1.4,3.7,1.5h1.5c1.3.2,1.9.8,1.9,1.9Z"/>
    <path class="st1" d="M336.6,53.7c1.2,1.6,1.8,3.6,1.8,6s-1.1,6-3.3,7.8c-2.2,1.8-5.4,2.7-9.5,2.7h-13.8c-.7,0-1.3-.2-1.7-.6-.4-.4-.6-.9-.6-1.6v-34.2c0-.7.2-1.2.6-1.6.4-.4,1-.6,1.7-.6h13.2c4,0,7.1.9,9.3,2.6,2.2,1.8,3.3,4.2,3.3,7.4s-.5,3.9-1.6,5.4c-1.1,1.5-2.6,2.6-4.5,3.3,2.2.6,4,1.7,5.2,3.3ZM313.9,48.8h10.4c2.9,0,5.1-.6,6.5-1.8,1.5-1.2,2.2-2.9,2.2-5.1,0-4.4-2.9-6.6-8.8-6.6h-10.4v13.4ZM331.9,64.8c1.4-1.1,2.2-2.9,2.2-5.2,0-4.7-3-7.1-8.9-7.1h-11.2v14h11.2c3,0,5.3-.6,6.7-1.7Z"/>
    <path class="st1" d="M367.4,64.5c.3.3.4.7.4,1.3,0,.9-.6,1.8-1.9,2.5-1.3.8-2.7,1.3-4.2,1.7-1.5.4-2.9.6-4.3.6-4.1,0-7.4-1.2-9.8-3.7-2.4-2.4-3.6-5.8-3.6-10.1s.5-5.2,1.6-7.3c1.1-2.1,2.5-3.7,4.5-4.9,1.9-1.2,4.1-1.8,6.5-1.8,3.5,0,6.2,1.1,8.3,3.4,2,2.3,3.1,5.3,3.1,9.2s-.1,1.3-.4,1.6c-.3.3-.8.5-1.4.5h-17.6c.3,6.3,3.3,9.4,8.9,9.4s2.6-.2,3.7-.6c1-.4,2.1-.9,3.3-1.6.9-.5,1.6-.8,1.9-.8s.7.2,1,.5ZM351.2,48.5c-1.4,1.5-2.2,3.5-2.5,6.2h15.5c0-2.7-.7-4.8-2-6.2-1.3-1.4-3.1-2.2-5.4-2.2s-4.2.7-5.6,2.2Z"/>
    <path class="st1" d="M395.5,53.4v14.9c0,.7-.2,1.2-.6,1.6-.4.4-.9.6-1.6.6s-1.2-.2-1.6-.6c-.4-.4-.6-.9-.6-1.6v-2.6c-.7,1.6-1.8,2.8-3.2,3.6s-3.1,1.3-4.9,1.3-3.3-.3-4.7-1c-1.4-.7-2.6-1.7-3.4-2.9-.8-1.2-1.3-2.6-1.3-4.1s.5-3.6,1.5-4.7c1-1.1,2.7-1.9,5-2.4,2.3-.5,5.6-.7,9.8-.7h1.2v-1.8c0-2.2-.4-3.8-1.3-4.8-.9-1-2.3-1.5-4.4-1.5s-5,.7-7.6,2c-1,.6-1.7.9-2.1.9s-.8-.2-1.1-.5c-.3-.3-.4-.7-.4-1.3s.2-1,.5-1.3c.3-.4.8-.8,1.5-1.2,1.3-.7,2.7-1.3,4.4-1.7,1.6-.4,3.2-.6,4.8-.6,6.7,0,10,3.5,10,10.5ZM389.1,64.9c1.4-1.5,2.1-3.4,2.1-5.7v-1.6h-1c-3.2,0-5.7.1-7.3.4-1.7.3-2.9.7-3.6,1.4-.7.6-1.1,1.6-1.1,2.8s.5,2.6,1.6,3.5c1,.9,2.3,1.4,3.9,1.4s4-.7,5.4-2.2Z"/>
    <path class="st1" d="M425.5,43.6c.4.4.6.9.6,1.6v23.2c0,.6-.2,1.1-.6,1.5-.4.4-.9.6-1.6.6s-1.2-.2-1.6-.6-.6-.9-.6-1.5v-2.7c-.8,1.6-2,2.8-3.5,3.7-1.5.8-3.2,1.3-5.1,1.3-3.2,0-5.6-.9-7.2-2.7-1.6-1.8-2.4-4.4-2.4-7.9v-14.9c0-.7.2-1.2.6-1.6s.9-.6,1.6-.6,1.2.2,1.6.6c.4.4.6.9.6,1.6v14.8c0,2.4.5,4.1,1.4,5.2.9,1.1,2.4,1.7,4.5,1.7s4.2-.8,5.6-2.3c1.4-1.5,2.1-3.5,2.1-6v-13.4c0-.7.2-1.2.6-1.6.4-.4.9-.6,1.6-.6s1.2.2,1.6.6Z"/>
    <path class="st1" d="M454,44.6c1.8,1.1,3.2,2.7,4.2,4.8,1,2.1,1.5,4.5,1.5,7.2s-.5,5.2-1.5,7.3-2.4,3.7-4.2,4.9-3.9,1.8-6.2,1.8-3.9-.5-5.5-1.4c-1.6-.9-2.7-2.2-3.5-3.9v3c0,.7-.2,1.2-.6,1.6-.4.4-.9.6-1.6.6s-1.2-.2-1.6-.6c-.4-.4-.6-.9-.6-1.6v-34.8c0-.6.2-1.1.6-1.5s.9-.6,1.6-.6,1.2.2,1.6.6c.4.4.6.9.6,1.6v14.7c.8-1.7,2-3,3.5-3.9,1.6-.9,3.4-1.4,5.5-1.4s4.4.6,6.2,1.7ZM452.9,64.2c1.4-1.8,2.1-4.3,2.1-7.6s-.7-5.6-2.1-7.4c-1.4-1.8-3.4-2.6-6-2.6s-4.6.9-6,2.6c-1.4,1.8-2.1,4.3-2.1,7.5s.7,5.8,2.1,7.5c1.4,1.8,3.4,2.7,6,2.7s4.6-.9,6-2.7Z"/>
    <path class="st1" d="M470.7,68.9c-1.9-1.1-3.4-2.7-4.4-4.8-1-2.1-1.6-4.5-1.6-7.3s.5-5.2,1.6-7.3c1-2.1,2.5-3.7,4.4-4.8s4.1-1.7,6.7-1.7,4.7.6,6.7,1.7,3.4,2.7,4.5,4.8c1,2.1,1.6,4.5,1.6,7.3s-.5,5.2-1.6,7.3c-1,2.1-2.5,3.7-4.5,4.8s-4.2,1.7-6.7,1.7-4.7-.6-6.7-1.7ZM483.4,64.3c1.4-1.7,2.1-4.3,2.1-7.6s-.7-5.8-2.1-7.5c-1.4-1.8-3.4-2.7-6-2.7s-4.6.9-6,2.7c-1.4,1.8-2.1,4.3-2.1,7.5s.7,5.8,2.1,7.6c1.4,1.8,3.4,2.6,6.1,2.6s4.6-.9,6.1-2.6Z"/>
    <path class="st1" d="M518.5,43.6c.4.4.6.9.6,1.6v23.2c0,.6-.2,1.1-.6,1.5-.4.4-.9.6-1.6.6s-1.2-.2-1.6-.6-.6-.9-.6-1.5v-2.7c-.8,1.6-2,2.8-3.5,3.7-1.5.8-3.2,1.3-5.1,1.3-3.2,0-5.6-.9-7.2-2.7-1.6-1.8-2.4-4.4-2.4-7.9v-14.9c0-.7.2-1.2.6-1.6s.9-.6,1.6-.6,1.2.2,1.6.6c.4.4.6.9.6,1.6v14.8c0,2.4.5,4.1,1.4,5.2.9,1.1,2.4,1.7,4.5,1.7s4.2-.8,5.6-2.3c1.4-1.5,2.1-3.5,2.1-6v-13.4c0-.7.2-1.2.6-1.6.4-.4.9-.6,1.6-.6s1.2.2,1.6.6Z"/>
    <path class="st1" d="M542.9,44.9c0,.6-.2,1.1-.5,1.4-.3.3-.9.6-1.7.6l-1.6.2c-2.4.2-4.3,1.1-5.5,2.6-1.2,1.5-1.8,3.3-1.8,5.3v13.3c0,.7-.2,1.3-.6,1.6-.4.4-.9.5-1.6.5s-1.2-.2-1.6-.6c-.4-.4-.6-.9-.6-1.6v-23.1c0-.7.2-1.2.7-1.6s1-.6,1.6-.6,1.1.2,1.5.6c.4.4.6.9.6,1.6v3.1c.8-1.6,1.9-2.8,3.3-3.7,1.4-.8,3-1.3,4.8-1.5h.8c1.5-.2,2.3.5,2.3,1.8Z"/>
    <path class="st1" d="M569.5,43.6c.4.4.6.9.6,1.6v23.2c0,4-1,7-3.1,9-2,2-5.1,3-9.1,3s-7.2-.8-9.8-2.3c-1.3-.7-2-1.6-2-2.5s.1-.9.4-1.3c.3-.3.6-.5,1.1-.5s1,.3,2,.8c1.3.7,2.5,1.2,3.8,1.6,1.2.4,2.7.6,4.4.6,2.6,0,4.5-.7,5.9-2.1,1.3-1.4,2-3.4,2-6v-4.7c-.8,1.7-1.9,3-3.5,3.9-1.6.9-3.5,1.4-5.6,1.4s-4.4-.5-6.2-1.6-3.2-2.6-4.2-4.7c-1-2-1.5-4.3-1.5-7s.5-4.9,1.5-7c1-2,2.4-3.6,4.2-4.7,1.8-1.1,3.9-1.6,6.2-1.6s4,.5,5.5,1.4c1.6.9,2.8,2.2,3.6,3.9v-3c0-.7.2-1.2.6-1.6.4-.4.9-.6,1.6-.6s1.2.2,1.6.6ZM563.4,63.2c1.5-1.7,2.2-4,2.2-7s-.7-5.3-2.2-7-3.5-2.5-6.1-2.5-4.6.8-6.1,2.5c-1.5,1.7-2.2,4-2.2,7s.7,5.3,2.2,7c1.5,1.7,3.5,2.5,6.1,2.5s4.6-.8,6-2.5Z"/>
  </g>
</svg>